<svg xmlns="http://www.w3.org/2000/svg" xmlns:xlink="http://www.w3.org/1999/xlink" width="500" zoomAndPan="magnify" viewBox="0 0 375 374.999991" height="500" preserveAspectRatio="xMidYMid meet" version="1.0"><defs><clipPath id="f625dd76ee"><path d="M 37.5 37.5 L 110.15625 37.5 L 110.15625 337.5 L 37.5 337.5 Z M 37.5 37.5 " clip-rule="nonzero"/></clipPath><clipPath id="0875278008"><path d="M 264.84375 37.5 L 337.5 37.5 L 337.5 337.5 L 264.84375 337.5 Z M 264.84375 37.5 " clip-rule="nonzero"/></clipPath><clipPath id="21aaf9ff24"><path d="M 37.5 151.171875 L 337.5 151.171875 L 337.5 223.828125 L 37.5 223.828125 Z M 37.5 151.171875 " clip-rule="nonzero"/></clipPath><clipPath id="9dce380183"><path d="M 104.824219 37.5 L 164.394531 37.5 L 164.394531 223.828125 L 104.824219 223.828125 Z M 104.824219 37.5 " clip-rule="nonzero"/></clipPath><clipPath id="601227cebf"><path d="M 210.605469 37.5 L 269.203125 37.5 L 269.203125 223.828125 L 210.605469 223.828125 Z M 210.605469 37.5 " clip-rule="nonzero"/></clipPath><clipPath id="11f871d410"><path d="M 151.171875 115.300781 L 223.828125 115.300781 L 223.828125 337.5 L 151.171875 337.5 Z M 151.171875 115.300781 " clip-rule="nonzero"/></clipPath></defs><g clip-path="url(#f625dd76ee)"><path fill="#fcb316" d="M 37.5 37.5 L 110.15625 37.5 L 110.15625 337.496094 L 37.5 337.496094 Z M 37.5 37.5 " fill-opacity="1" fill-rule="nonzero"/></g><g clip-path="url(#0875278008)"><path fill="#fcb316" d="M 264.84375 37.5 L 337.5 37.5 L 337.5 337.496094 L 264.84375 337.496094 Z M 264.84375 37.5 " fill-opacity="1" fill-rule="nonzero"/></g><g clip-path="url(#21aaf9ff24)"><path fill="#fcb316" d="M 37.5 223.828125 L 37.5 151.171875 L 337.496094 151.171875 L 337.496094 223.828125 Z M 37.5 223.828125 " fill-opacity="1" fill-rule="nonzero"/></g><g clip-path="url(#9dce380183)"><path fill="#fcb316" d="M 104.824219 37.5 L 164.394531 37.5 L 164.394531 223.886719 L 104.824219 223.886719 Z M 104.824219 37.5 " fill-opacity="1" fill-rule="nonzero"/></g><g clip-path="url(#601227cebf)"><path fill="#fcb316" d="M 210.605469 37.5 L 269.203125 37.5 L 269.203125 223.832031 L 210.605469 223.832031 Z M 210.605469 37.5 " fill-opacity="1" fill-rule="nonzero"/></g><g clip-path="url(#11f871d410)"><path fill="#fcb316" d="M 151.171875 115.300781 L 223.828125 115.300781 L 223.828125 337.53125 L 151.171875 337.53125 Z M 151.171875 115.300781 " fill-opacity="1" fill-rule="nonzero"/></g></svg>