<svg width="766" height="551" viewBox="0 0 766 551" fill="none" xmlns="http://www.w3.org/2000/svg">
<g filter="url(#filter0_dd_1_2)">
<path d="M296 16H23C20.7909 16 19 17.7909 19 20V264C19 266.209 20.7909 268 23 268H296C298.209 268 300 266.209 300 264V20C300 17.7909 298.209 16 296 16Z" fill="#373838"/>
<path d="M106 32H37C35.8954 32 35 32.8954 35 34V37C35 38.1046 35.8954 39 37 39H106C107.105 39 108 38.1046 108 37V34C108 32.8954 107.105 32 106 32Z" fill="#9CA3AF"/>
<path d="M72 43H37C35.8954 43 35 43.8954 35 45V46C35 47.1046 35.8954 48 37 48H72C73.1046 48 74 47.1046 74 46V45C74 43.8954 73.1046 43 72 43Z" fill="#4B5563"/>
<path d="M38 252C36.3431 252 35 250.657 35 249V73C35 71.3431 36.3431 70 38 70H46C47.6569 70 49 71.3431 49 73V249C49 250.657 47.6569 252 46 252H38Z" fill="#9CA3AF"/>
<path d="M74.6666 252V127C74.6666 125.343 76.0098 124 77.6666 124H84.6666C86.3235 124 87.6666 125.343 87.6666 127V252H74.6666Z" fill="#9CA3AF"/>
<path d="M113.333 252V109C113.333 107.343 114.677 106 116.333 106H124.333C125.99 106 127.333 107.343 127.333 109V252H113.333Z" fill="#9CA3AF"/>
<path d="M153 252V133C153 131.343 154.343 130 156 130H163C164.657 130 166 131.343 166 133V252H153Z" fill="#9CA3AF"/>
<path d="M191.667 252V152C191.667 150.343 193.01 149 194.667 149H202.667C204.323 149 205.667 150.343 205.667 152V252H191.667Z" fill="#9CA3AF"/>
<path d="M231.333 252V113C231.333 111.343 232.677 110 234.333 110H241.333C242.99 110 244.333 111.343 244.333 113V252H231.333Z" fill="#9CA3AF"/>
<path d="M270 252V105C270 103.343 271.343 102 273 102H281C282.657 102 284 103.343 284 105V252H270Z" fill="#9CA3AF"/>
</g>
<g filter="url(#filter1_dd_1_2)">
<path d="M739 296H466C463.791 296 462 297.791 462 300V523C462 525.209 463.791 527 466 527H739C741.209 527 743 525.209 743 523V300C743 297.791 741.209 296 739 296Z" fill="#373838"/>
<path d="M549 312H480C478.895 312 478 312.895 478 314V317C478 318.105 478.895 319 480 319H549C550.105 319 551 318.105 551 317V314C551 312.895 550.105 312 549 312Z" fill="#9CA3AF"/>
<path d="M515 323H480C478.895 323 478 323.895 478 325V326C478 327.105 478.895 328 480 328H515C516.105 328 517 327.105 517 326V325C517 323.895 516.105 323 515 323Z" fill="#4B5563"/>
<g opacity="0.3">
<path fill-rule="evenodd" clip-rule="evenodd" d="M462 357.72C462 357.72 481.498 416.678 502.143 416.678C521.641 416.678 521.641 391.665 542.286 391.665C561.784 391.665 561.784 432.757 582.429 432.757C601.927 432.757 601.927 352.36 622.571 352.36C642.069 352.36 642.069 475.635 662.714 475.635C682.212 475.635 682.212 425.611 702.857 425.611C722.355 425.611 743 468.489 743 468.489V527H462V357.72Z" fill="#393939"/>
<path fill-rule="evenodd" clip-rule="evenodd" d="M462 357.72C462 357.72 481.498 416.678 502.143 416.678C521.641 416.678 521.641 391.665 542.286 391.665C561.784 391.665 561.784 432.757 582.429 432.757C601.927 432.757 601.927 352.36 622.571 352.36C642.069 352.36 642.069 475.635 662.714 475.635C682.212 475.635 682.212 425.611 702.857 425.611C722.355 425.611 743 468.489 743 468.489V527H462V357.72Z" fill="url(#paint0_linear_1_2)"/>
</g>
<path fill-rule="evenodd" clip-rule="evenodd" d="M622.572 350C631.889 350 635.978 364.366 643.25 408.517L644.712 417.412C651.408 457.608 655.847 472.72 662.715 472.72C669.443 472.72 673.242 467.399 679.689 451.63L680.712 449.101C688.457 429.885 693.243 422.921 702.858 422.921C703.977 422.921 705.109 423.047 706.254 423.296C714.48 425.087 723.035 432.995 731.609 445.036C734.986 449.779 738.135 454.852 740.974 459.924C741.72 461.256 742.249 462.515 742.867 463.688V465.249V466.836V471.492L740.532 467.43C739.791 465.995 738.932 464.394 737.966 462.668C735.205 457.736 732.144 452.805 728.873 448.211C720.808 436.884 712.839 429.518 705.632 427.949C704.689 427.744 703.764 427.641 702.858 427.641C695.658 427.641 691.588 432.965 685.19 448.351L682.353 455.304C675.597 471.558 671.147 477.44 662.715 477.44C652.721 477.44 648.304 462.152 640.76 416.371L638.974 405.543C632.759 368.574 628.65 354.72 622.572 354.72C615.385 354.72 611.115 364.359 604.272 391.35L602.537 398.226C595.588 425.38 591.292 434.755 582.429 434.755C573.511 434.755 568.71 429.661 561.739 415.955L558.607 409.663C552.6 397.842 548.87 393.848 542.286 393.848C534.587 393.848 530.531 396.566 523.947 404.558L522.643 406.164C515.191 415.408 510.671 418.748 502.144 418.748C492.261 418.748 482.422 407.304 472.779 388.326C469.476 381.825 466.433 374.872 463.716 367.92L462.627 365.087C462.455 364.63 462.287 364.181 462.123 363.74V359.565L462.178 352.518L463.703 356.774L464.561 359.238L465.466 361.723C465.945 363.016 466.466 364.384 467.024 365.813C469.683 372.617 472.661 379.42 475.881 385.757C484.876 403.462 493.962 414.028 502.144 414.028C509.17 414.028 512.921 411.473 519.229 403.808L520.497 402.245C528.234 392.647 533.069 389.128 542.286 389.128C550.817 389.128 555.314 394.263 562.373 408.415L563.494 410.689C570.598 425.166 574.671 430.035 582.429 430.035C588.782 430.035 592.727 421.308 599.026 396.742L601.19 388.182C608.419 359.954 613.041 350 622.572 350Z" fill="#6B7280"/>
</g>
<g filter="url(#filter2_dd_1_2)">
<mask id="mask0_1_2" style="mask-type:luminance" maskUnits="userSpaceOnUse" x="19" y="296" width="415" height="231">
<path d="M23 296.5H430C431.933 296.5 433.5 298.067 433.5 300V523C433.5 524.933 431.933 526.5 430 526.5H23C21.067 526.5 19.5 524.933 19.5 523V300C19.5 298.067 21.067 296.5 23 296.5Z" fill="white" stroke="white"/>
</mask>
<g mask="url(#mask0_1_2)">
<path d="M23 296.5H430C431.933 296.5 433.5 298.067 433.5 300V523C433.5 524.933 431.933 526.5 430 526.5H23C21.067 526.5 19.5 524.933 19.5 523V300C19.5 298.067 21.067 296.5 23 296.5Z" fill="#373838" stroke="#373838"/>
<path d="M42 314H178C178.828 314 179.5 314.672 179.5 315.5V319.5C179.5 320.328 178.828 321 178 321H42C41.1716 321 40.5 320.328 40.5 319.5V315.5C40.5 314.672 41.1716 314 42 314Z" fill="#9CA3AF" stroke="#373838"/>
<path d="M401.854 316.648L401.5 316.295L401.146 316.648L398.351 319.444C398.287 319.505 398.2 319.54 398.106 319.54C398.016 319.539 397.929 319.503 397.863 319.437C397.797 319.371 397.761 319.284 397.761 319.195L397.761 319.193C397.76 319.1 397.795 319.013 397.856 318.949L401.251 315.554C401.252 315.554 401.252 315.553 401.252 315.553C401.319 315.487 401.409 315.45 401.5 315.45C401.592 315.45 401.682 315.487 401.747 315.553L405.147 318.953C405.213 319.018 405.25 319.108 405.25 319.2C405.25 319.292 405.213 319.382 405.147 319.447C405.082 319.513 404.992 319.55 404.9 319.55C404.809 319.55 404.719 319.514 404.652 319.447C404.652 319.447 404.652 319.446 404.651 319.446L401.854 316.648Z" fill="#9CA3AF" stroke="#373838"/>
<path d="M41 346.5H370C370.276 346.5 370.5 346.724 370.5 347V351C370.5 351.276 370.276 351.5 370 351.5H41C40.7239 351.5 40.5 351.276 40.5 351V347C40.5 346.724 40.7239 346.5 41 346.5Z" fill="#9CA3AF" stroke="#373838"/>
<path d="M41 357.5H339.688C339.964 357.5 340.188 357.724 340.188 358V362C340.188 362.276 339.964 362.5 339.688 362.5H41C40.7239 362.5 40.5 362.276 40.5 362V358C40.5 357.724 40.7239 357.5 41 357.5Z" fill="#9CA3AF" stroke="#373838"/>
<path d="M41 368.5H354.297C354.573 368.5 354.797 368.724 354.797 369V373C354.797 373.276 354.573 373.5 354.297 373.5H41C40.7239 373.5 40.5 373.276 40.5 373V369C40.5 368.724 40.7239 368.5 41 368.5Z" fill="#9CA3AF" stroke="#373838"/>
<path d="M41 379.5H196.066C196.342 379.5 196.566 379.724 196.566 380V384C196.566 384.276 196.342 384.5 196.066 384.5H41C40.7239 384.5 40.5 384.276 40.5 384V380C40.5 379.724 40.7239 379.5 41 379.5Z" fill="#9CA3AF" stroke="#373838"/>
<path d="M19 397.5H434" stroke="#373838"/>
<path d="M19.5 441.5V440.5H433.5V441.5H19.5Z" fill="#4B5563" stroke="#373838"/>
<path d="M42 416H137C137.828 416 138.5 416.672 138.5 417.5V421.5C138.5 422.328 137.828 423 137 423H42C41.1716 423 40.5 422.328 40.5 421.5V417.5C40.5 416.672 41.1716 416 42 416Z" fill="#9CA3AF" stroke="#373838"/>
<path d="M401.146 420.352L401.5 420.705L401.854 420.352L404.653 417.553L404.653 417.553L404.659 417.546C404.691 417.513 404.729 417.487 404.77 417.469L404.77 417.47L404.774 417.468C404.815 417.45 404.86 417.44 404.907 417.44C404.956 417.44 405.001 417.449 405.041 417.465L405.043 417.466C405.087 417.484 405.125 417.51 405.155 417.54L405.155 417.54L405.16 417.545C405.19 417.575 405.216 417.613 405.234 417.657L405.235 417.659C405.251 417.699 405.26 417.744 405.26 417.793C405.26 417.84 405.25 417.885 405.232 417.926L405.232 417.926L405.231 417.93C405.213 417.971 405.187 418.009 405.154 418.041L405.154 418.041L405.147 418.047L401.749 421.446C401.748 421.446 401.748 421.447 401.748 421.447C401.681 421.513 401.591 421.55 401.5 421.55C401.408 421.55 401.318 421.513 401.253 421.447L397.853 418.047C397.787 417.982 397.75 417.892 397.75 417.8C397.75 417.708 397.787 417.618 397.853 417.553C397.918 417.487 398.008 417.45 398.1 417.45C398.191 417.45 398.281 417.486 398.348 417.553C398.348 417.553 398.348 417.554 398.349 417.554L401.146 420.352Z" fill="#9CA3AF" stroke="#373838"/>
<path d="M42 459H183C183.828 459 184.5 459.672 184.5 460.5V464.5C184.5 465.328 183.828 466 183 466H42C41.1716 466 40.5 465.328 40.5 464.5V460.5C40.5 459.672 41.1716 459 42 459Z" fill="#9CA3AF" stroke="#373838"/>
<path d="M401.146 463.352L401.5 463.705L401.854 463.352L404.653 460.553L404.653 460.553L404.659 460.546C404.691 460.513 404.729 460.487 404.77 460.469L404.77 460.47L404.774 460.468C404.815 460.45 404.86 460.44 404.907 460.44C404.956 460.44 405.001 460.449 405.041 460.465L405.043 460.466C405.087 460.484 405.125 460.51 405.155 460.54L405.155 460.54L405.16 460.545C405.19 460.575 405.216 460.613 405.234 460.657L405.235 460.659C405.251 460.699 405.26 460.744 405.26 460.793C405.26 460.84 405.25 460.885 405.232 460.926L405.232 460.926L405.231 460.93C405.213 460.971 405.187 461.009 405.154 461.041L405.154 461.041L405.147 461.047L401.749 464.446C401.748 464.446 401.748 464.447 401.748 464.447C401.681 464.513 401.591 464.55 401.5 464.55C401.408 464.55 401.318 464.513 401.253 464.447L397.853 461.047C397.787 460.982 397.75 460.892 397.75 460.8C397.75 460.708 397.787 460.618 397.853 460.553C397.918 460.487 398.008 460.45 398.1 460.45C398.191 460.45 398.281 460.486 398.348 460.553C398.348 460.553 398.348 460.554 398.349 460.554L401.146 463.352Z" fill="#9CA3AF" stroke="#373838"/>
<path d="M19 483.5H434" stroke="#373838"/>
<path d="M19 483.5H434" stroke="#373838"/>
<path d="M42 502H153C153.828 502 154.5 502.672 154.5 503.5V507.5C154.5 508.328 153.828 509 153 509H42C41.1716 509 40.5 508.328 40.5 507.5V503.5C40.5 502.672 41.1716 502 42 502Z" fill="#9CA3AF" stroke="#373838"/>
<path d="M401.146 506.352L401.5 506.705L401.854 506.352L404.653 503.553L404.653 503.553L404.659 503.546C404.691 503.513 404.729 503.487 404.77 503.469L404.77 503.47L404.774 503.468C404.815 503.45 404.86 503.44 404.907 503.44C404.956 503.44 405.001 503.449 405.041 503.465L405.043 503.466C405.087 503.484 405.125 503.51 405.155 503.54L405.155 503.54L405.16 503.545C405.19 503.575 405.216 503.613 405.234 503.657L405.235 503.659C405.251 503.699 405.26 503.744 405.26 503.793C405.26 503.84 405.25 503.885 405.232 503.926L405.232 503.926L405.231 503.93C405.213 503.971 405.187 504.009 405.154 504.041L405.154 504.041L405.147 504.047L401.749 507.446C401.748 507.446 401.748 507.447 401.748 507.447C401.681 507.513 401.591 507.55 401.5 507.55C401.408 507.55 401.318 507.513 401.253 507.447L397.853 504.047C397.787 503.982 397.75 503.892 397.75 503.8C397.75 503.708 397.787 503.618 397.853 503.553C397.918 503.487 398.008 503.45 398.1 503.45C398.191 503.45 398.281 503.486 398.348 503.553C398.348 503.553 398.348 503.554 398.349 503.554L401.146 506.352Z" fill="#9CA3AF" stroke="#373838"/>
</g>
<path d="M430 296.5H23C21.067 296.5 19.5 298.067 19.5 300V523C19.5 524.933 21.067 526.5 23 526.5H430C431.933 526.5 433.5 524.933 433.5 523V300C433.5 298.067 431.933 296.5 430 296.5Z" stroke="#373838"/>
</g>
<g filter="url(#filter3_dd_1_2)">
<mask id="mask1_1_2" style="mask-type:luminance" maskUnits="userSpaceOnUse" x="328" y="16" width="415" height="252">
<path d="M332 16.5H739C740.933 16.5 742.5 18.067 742.5 20V264C742.5 265.933 740.933 267.5 739 267.5H332C330.067 267.5 328.5 265.933 328.5 264V20C328.5 18.067 330.067 16.5 332 16.5Z" fill="white" stroke="white"/>
</mask>
<g mask="url(#mask1_1_2)">
<path d="M332 16.5H739C740.933 16.5 742.5 18.067 742.5 20V264C742.5 265.933 740.933 267.5 739 267.5H332C330.067 267.5 328.5 265.933 328.5 264V20C328.5 18.067 330.067 16.5 332 16.5Z" fill="#373838" stroke="#373838"/>
<path d="M328.5 16.5H742.5V57.5H328.5V16.5Z" fill="#373838" stroke="#373838"/>
<path d="M351 32.5H397C397.828 32.5 398.5 33.1716 398.5 34V40C398.5 40.8284 397.828 41.5 397 41.5H351C350.172 41.5 349.5 40.8284 349.5 40V34C349.5 33.1716 350.172 32.5 351 32.5Z" fill="#9CA3AF" stroke="#373838"/>
<path d="M511 32.5H557C557.828 32.5 558.5 33.1716 558.5 34V40C558.5 40.8284 557.828 41.5 557 41.5H511C510.172 41.5 509.5 40.8284 509.5 40V34C509.5 33.1716 510.172 32.5 511 32.5Z" fill="#9CA3AF" stroke="#373838"/>
<path d="M671 32.5H717C717.828 32.5 718.5 33.1716 718.5 34V40C718.5 40.8284 717.828 41.5 717 41.5H671C670.172 41.5 669.5 40.8284 669.5 40V34C669.5 33.1716 670.172 32.5 671 32.5Z" fill="#9CA3AF" stroke="#373838"/>
<path d="M328 57.5H743" stroke="#373838"/>
<path d="M351 74.5H397C397.828 74.5 398.5 75.1716 398.5 76V82C398.5 82.8284 397.828 83.5 397 83.5H351C350.172 83.5 349.5 82.8284 349.5 82V76C349.5 75.1716 350.172 74.5 351 74.5Z" fill="#9CA3AF" stroke="#373838"/>
<path d="M511 74.5H557C557.828 74.5 558.5 75.1716 558.5 76V82C558.5 82.8284 557.828 83.5 557 83.5H511C510.172 83.5 509.5 82.8284 509.5 82V76C509.5 75.1716 510.172 74.5 511 74.5Z" fill="#9CA3AF" stroke="#373838"/>
<path d="M671 74.5H717C717.828 74.5 718.5 75.1716 718.5 76V82C718.5 82.8284 717.828 83.5 717 83.5H671C670.172 83.5 669.5 82.8284 669.5 82V76C669.5 75.1716 670.172 74.5 671 74.5Z" fill="#FCB316" stroke="#373838"/>
<path d="M328 99.5H743" stroke="#373838"/>
<path d="M351 116.5H397C397.828 116.5 398.5 117.172 398.5 118V124C398.5 124.828 397.828 125.5 397 125.5H351C350.172 125.5 349.5 124.828 349.5 124V118C349.5 117.172 350.172 116.5 351 116.5Z" fill="#9CA3AF" stroke="#373838"/>
<path d="M511 116.5H557C557.828 116.5 558.5 117.172 558.5 118V124C558.5 124.828 557.828 125.5 557 125.5H511C510.172 125.5 509.5 124.828 509.5 124V118C509.5 117.172 510.172 116.5 511 116.5Z" fill="#9CA3AF" stroke="#373838"/>
<path d="M671 116.5H717C717.828 116.5 718.5 117.172 718.5 118V124C718.5 124.828 717.828 125.5 717 125.5H671C670.172 125.5 669.5 124.828 669.5 124V118C669.5 117.172 670.172 116.5 671 116.5Z" fill="#FCB316" stroke="#373838"/>
<path d="M328 141.5H743" stroke="#373838"/>
<path d="M351 158.5H397C397.828 158.5 398.5 159.172 398.5 160V166C398.5 166.828 397.828 167.5 397 167.5H351C350.172 167.5 349.5 166.828 349.5 166V160C349.5 159.172 350.172 158.5 351 158.5Z" fill="#9CA3AF" stroke="#373838"/>
<path d="M511 158.5H557C557.828 158.5 558.5 159.172 558.5 160V166C558.5 166.828 557.828 167.5 557 167.5H511C510.172 167.5 509.5 166.828 509.5 166V160C509.5 159.172 510.172 158.5 511 158.5Z" fill="#9CA3AF" stroke="#373838"/>
<path d="M671 158.5H717C717.828 158.5 718.5 159.172 718.5 160V166C718.5 166.828 717.828 167.5 717 167.5H671C670.172 167.5 669.5 166.828 669.5 166V160C669.5 159.172 670.172 158.5 671 158.5Z" fill="#FCB316" stroke="#373838"/>
<path d="M351 200.5H397C397.828 200.5 398.5 201.172 398.5 202V208C398.5 208.828 397.828 209.5 397 209.5H351C350.172 209.5 349.5 208.828 349.5 208V202C349.5 201.172 350.172 200.5 351 200.5Z" fill="#9CA3AF" stroke="#373838"/>
<path d="M511 200.5H557C557.828 200.5 558.5 201.172 558.5 202V208C558.5 208.828 557.828 209.5 557 209.5H511C510.172 209.5 509.5 208.828 509.5 208V202C509.5 201.172 510.172 200.5 511 200.5Z" fill="#9CA3AF" stroke="#373838"/>
<path d="M671 200.5H717C717.828 200.5 718.5 201.172 718.5 202V208C718.5 208.828 717.828 209.5 717 209.5H671C670.172 209.5 669.5 208.828 669.5 208V202C669.5 201.172 670.172 200.5 671 200.5Z" fill="#FCB316" stroke="#373838"/>
<path d="M328 225.5H743" stroke="#373838"/>
<path d="M351 242.5H397C397.828 242.5 398.5 243.172 398.5 244V250C398.5 250.828 397.828 251.5 397 251.5H351C350.172 251.5 349.5 250.828 349.5 250V244C349.5 243.172 350.172 242.5 351 242.5Z" fill="#9CA3AF" stroke="#373838"/>
<path d="M511 242.5H557C557.828 242.5 558.5 243.172 558.5 244V250C558.5 250.828 557.828 251.5 557 251.5H511C510.172 251.5 509.5 250.828 509.5 250V244C509.5 243.172 510.172 242.5 511 242.5Z" fill="#9CA3AF" stroke="#373838"/>
<path d="M671 242.5H717C717.828 242.5 718.5 243.172 718.5 244V250C718.5 250.828 717.828 251.5 717 251.5H671C670.172 251.5 669.5 250.828 669.5 250V244C669.5 243.172 670.172 242.5 671 242.5Z" fill="#FCB316" stroke="#373838"/>
</g>
</g>
<defs>
<filter id="filter0_dd_1_2" x="13" y="14" width="293" height="264" filterUnits="userSpaceOnUse" color-interpolation-filters="sRGB">
<feFlood flood-opacity="0" result="BackgroundImageFix"/>
<feColorMatrix in="SourceAlpha" type="matrix" values="0 0 0 0 0 0 0 0 0 0 0 0 0 0 0 0 0 0 127 0" result="hardAlpha"/>
<feOffset dy="2"/>
<feGaussianBlur stdDeviation="2"/>
<feColorMatrix type="matrix" values="0 0 0 0 0 0 0 0 0 0 0 0 0 0 0 0 0 0 0.05 0"/>
<feBlend mode="normal" in2="BackgroundImageFix" result="effect1_dropShadow_1_2"/>
<feColorMatrix in="SourceAlpha" type="matrix" values="0 0 0 0 0 0 0 0 0 0 0 0 0 0 0 0 0 0 127 0" result="hardAlpha"/>
<feOffset dy="4"/>
<feGaussianBlur stdDeviation="3"/>
<feColorMatrix type="matrix" values="0 0 0 0 0 0 0 0 0 0 0 0 0 0 0 0 0 0 0.1 0"/>
<feBlend mode="normal" in2="effect1_dropShadow_1_2" result="effect2_dropShadow_1_2"/>
<feBlend mode="normal" in="SourceGraphic" in2="effect2_dropShadow_1_2" result="shape"/>
</filter>
<filter id="filter1_dd_1_2" x="456" y="294" width="293" height="243" filterUnits="userSpaceOnUse" color-interpolation-filters="sRGB">
<feFlood flood-opacity="0" result="BackgroundImageFix"/>
<feColorMatrix in="SourceAlpha" type="matrix" values="0 0 0 0 0 0 0 0 0 0 0 0 0 0 0 0 0 0 127 0" result="hardAlpha"/>
<feOffset dy="2"/>
<feGaussianBlur stdDeviation="2"/>
<feColorMatrix type="matrix" values="0 0 0 0 0 0 0 0 0 0 0 0 0 0 0 0 0 0 0.05 0"/>
<feBlend mode="normal" in2="BackgroundImageFix" result="effect1_dropShadow_1_2"/>
<feColorMatrix in="SourceAlpha" type="matrix" values="0 0 0 0 0 0 0 0 0 0 0 0 0 0 0 0 0 0 127 0" result="hardAlpha"/>
<feOffset dy="4"/>
<feGaussianBlur stdDeviation="3"/>
<feColorMatrix type="matrix" values="0 0 0 0 0 0 0 0 0 0 0 0 0 0 0 0 0 0 0.1 0"/>
<feBlend mode="normal" in2="effect1_dropShadow_1_2" result="effect2_dropShadow_1_2"/>
<feBlend mode="normal" in="SourceGraphic" in2="effect2_dropShadow_1_2" result="shape"/>
</filter>
<filter id="filter2_dd_1_2" x="13" y="294" width="427" height="243" filterUnits="userSpaceOnUse" color-interpolation-filters="sRGB">
<feFlood flood-opacity="0" result="BackgroundImageFix"/>
<feColorMatrix in="SourceAlpha" type="matrix" values="0 0 0 0 0 0 0 0 0 0 0 0 0 0 0 0 0 0 127 0" result="hardAlpha"/>
<feOffset dy="2"/>
<feGaussianBlur stdDeviation="2"/>
<feColorMatrix type="matrix" values="0 0 0 0 0 0 0 0 0 0 0 0 0 0 0 0 0 0 0.05 0"/>
<feBlend mode="normal" in2="BackgroundImageFix" result="effect1_dropShadow_1_2"/>
<feColorMatrix in="SourceAlpha" type="matrix" values="0 0 0 0 0 0 0 0 0 0 0 0 0 0 0 0 0 0 127 0" result="hardAlpha"/>
<feOffset dy="4"/>
<feGaussianBlur stdDeviation="3"/>
<feColorMatrix type="matrix" values="0 0 0 0 0 0 0 0 0 0 0 0 0 0 0 0 0 0 0.1 0"/>
<feBlend mode="normal" in2="effect1_dropShadow_1_2" result="effect2_dropShadow_1_2"/>
<feBlend mode="normal" in="SourceGraphic" in2="effect2_dropShadow_1_2" result="shape"/>
</filter>
<filter id="filter3_dd_1_2" x="322" y="14" width="427" height="264" filterUnits="userSpaceOnUse" color-interpolation-filters="sRGB">
<feFlood flood-opacity="0" result="BackgroundImageFix"/>
<feColorMatrix in="SourceAlpha" type="matrix" values="0 0 0 0 0 0 0 0 0 0 0 0 0 0 0 0 0 0 127 0" result="hardAlpha"/>
<feOffset dy="2"/>
<feGaussianBlur stdDeviation="2"/>
<feColorMatrix type="matrix" values="0 0 0 0 0 0 0 0 0 0 0 0 0 0 0 0 0 0 0.05 0"/>
<feBlend mode="normal" in2="BackgroundImageFix" result="effect1_dropShadow_1_2"/>
<feColorMatrix in="SourceAlpha" type="matrix" values="0 0 0 0 0 0 0 0 0 0 0 0 0 0 0 0 0 0 127 0" result="hardAlpha"/>
<feOffset dy="4"/>
<feGaussianBlur stdDeviation="3"/>
<feColorMatrix type="matrix" values="0 0 0 0 0 0 0 0 0 0 0 0 0 0 0 0 0 0 0.1 0"/>
<feBlend mode="normal" in2="effect1_dropShadow_1_2" result="effect2_dropShadow_1_2"/>
<feBlend mode="normal" in="SourceGraphic" in2="effect2_dropShadow_1_2" result="shape"/>
</filter>
<linearGradient id="paint0_linear_1_2" x1="602.5" y1="352.36" x2="602.5" y2="527" gradientUnits="userSpaceOnUse">
<stop offset="0.046875" stop-color="white" stop-opacity="0"/>
<stop offset="1" stop-color="#374151"/>
</linearGradient>
</defs>
</svg>
